<svg id="Слой_1" data-name="Слой 1" xmlns="http://www.w3.org/2000/svg" width="489.6" height="344.1" viewBox="0 0 489.6 344.1"><title>Dostavka</title><path d="M1022.18,1308.27V1100a21,21,0,0,1,21-21h208.2a21,21,0,0,1,21,21v208.31a7,7,0,0,1-7,7H1029.16a7,7,0,0,1-7-7h0Zm168.13,71.36a43.47,43.47,0,1,1-43.47-43.47,43.47,43.47,0,0,1,43.47,43.47h0Zm-21.74,0a21.73,21.73,0,1,0-21.73,21.73,21.73,21.73,0,0,0,21.73-21.73h0Zm-59.18-43.47H1012a7,7,0,0,0-7,7v21.2a7,7,0,0,0,7,7h78.08a57.34,57.34,0,0,1,19.33-35.17h0Zm308.36,43.47a43.47,43.47,0,1,1-43.47-43.47,43.47,43.47,0,0,1,43.47,43.47h0Zm-21.73,0a21.74,21.74,0,1,0-21.73,21.73,21.73,21.73,0,0,0,21.73-21.73h0Zm98.59-36.48v21.2a7,7,0,0,1-7,7h-56.56a57.36,57.36,0,0,0-113.54,0h-113.9a57.34,57.34,0,0,0-19.33-35.17h108V1136.32a14,14,0,0,1,14-14h66a55.9,55.9,0,0,1,46.32,24.62l42.52,63a55.91,55.91,0,0,1,9.57,31.27v94.94h17a7,7,0,0,1,7,7h0Zm-70.88-131.59-34-48.32a7,7,0,0,0-5.72-3h-53a7,7,0,0,0-7,7v48.31a7,7,0,0,0,7,7h87a7,7,0,0,0,5.71-11h0Zm0,0" transform="translate(-1005 -1079)" style="fill:#888"/></svg>