<svg id="Слой_1" data-name="Слой 1" xmlns="http://www.w3.org/2000/svg" width="133.62" height="320" viewBox="0 0 133.62 320"><title>Glue</title><path d="M1299.7,1202.92h-9v-10.69a16.92,16.92,0,0,0-16.91-16.91h-6.8l-7.09-81.45a4.23,4.23,0,0,0-4.21-3.86H1244a4.23,4.23,0,0,0-4.21,3.86l-7.09,81.45h-6.8a16.92,16.92,0,0,0-16.91,16.91v10.69h-9a16.92,16.92,0,0,0-16.91,16.91v173.25a16.91,16.91,0,0,0,16.91,16.91h99.79a16.91,16.91,0,0,0,16.92-16.91V1219.83a16.92,16.92,0,0,0-16.92-16.91h0Zm-49.9,156.91a31.65,31.65,0,0,1-31.65-31.65c0-17.49,31.65-56.59,31.65-56.59s31.65,39.11,31.65,56.59a31.65,31.65,0,0,1-31.65,31.65h0Zm0,0" transform="translate(-1183 -1090)" style="fill:#888"/></svg>