<svg id="Режим_изоляции" data-name="Режим изоляции" xmlns="http://www.w3.org/2000/svg" width="430.74" height="489.6" viewBox="0 0 430.74 489.6"><title>Samovivoz</title><path d="M1037.1,1089.68a52.88,52.88,0,0,1,100.44-33.14l103.92,315a69.43,69.43,0,0,0-30.27-1.14l-100.6-304.92a24.5,24.5,0,1,0-46.54,15.35,14.19,14.19,0,1,1-27,8.89h0Zm409.43,247.07-170.26,56.18a69.54,69.54,0,0,1,13.87,24.23c0.11,0.33.17,0.66,0.27,1l165-54.45a14.19,14.19,0,0,0-8.89-27h0Zm-169.87,84.86a55.74,55.74,0,1,1-70.41-35.47,55.75,55.75,0,0,1,70.41,35.47h0Zm-26.47,8.74a27.87,27.87,0,1,0-17.73,35.2,27.87,27.87,0,0,0,17.73-35.2h0Zm153.31-307.23,57.8,175.2a7.09,7.09,0,0,1-4.51,9l-181.94,60a7.09,7.09,0,0,1-9-4.52l-57.8-175.2a7.09,7.09,0,0,1,4.51-9l181.93-60a7.1,7.1,0,0,1,9,4.52h0Zm-24.07,101.77-62-34.09L1288,1255.06l19.53,9,12.75-27.8,23,69.78,22-7.27-23-69.78,26.78,14.74Zm-54.05-104.52-37-112a4.54,4.54,0,0,0-5.73-2.89L1251,1015.93l-0.16.28-0.27-.15-16.72,5.52,13.77,41.73-18.86,6.22L1215,1027.8l-16.72,5.52-0.13.28-0.29-.14-31.48,10.39a4.54,4.54,0,0,0-2.89,5.73l37,112a4.53,4.53,0,0,0,5.73,2.89l116.32-38.38a4.54,4.54,0,0,0,2.89-5.73h0Zm0,0" transform="translate(-1034.43 -1005.24)" style="fill:#888"/></svg>