<svg id="Слой_1" data-name="Слой 1" xmlns="http://www.w3.org/2000/svg" width="248.91" height="266.66" viewBox="0 0 248.91 266.66"><title>Saw</title><path d="M1373.9,1160.31L1330.59,1117,1201,1246.59a10.68,10.68,0,0,0-7.54-3.13h0a10.66,10.66,0,0,0-7.54,3.13l-57.8,57.8a10.67,10.67,0,0,0,0,15.08l61.07,61.07a10.66,10.66,0,0,0,15.08,0l41.72-41.72a10.67,10.67,0,0,0,2.7-10.51l-8-27.7,21.55-5.68,7.2-27.3,27.3-7.2,7.2-27.3,27.3-7.2,7.2-27.3,27.31-7.2,8.21-31.11h0Zm-177.17,197.61-46-46,42.72-42.72,22.36,22.39,10.63,36.59Zm0,0" transform="translate(-1125 -1117)" style="fill:#888"/></svg>